<?xml version="1.0" standalone="no"?>
<!DOCTYPE svg PUBLIC "-//W3C//DTD SVG 20010904//EN"
 "http://www.w3.org/TR/2001/REC-SVG-20010904/DTD/svg10.dtd">
<svg version="1.0" xmlns="http://www.w3.org/2000/svg"
 width="409.000000pt" height="142.000000pt" viewBox="0 0 409.000000 142.000000"
 preserveAspectRatio="xMidYMid meet">

<g transform="translate(0.000000,142.000000) scale(0.100000,-0.100000)"
fill="#000000" stroke="none">
<path d="M0 710 l0 -710 2045 0 2045 0 0 710 0 710 -2045 0 -2045 0 0 -710z
m815 516 c117 -31 213 -95 284 -189 105 -138 130 -361 59 -504 l-22 -45 28
-54 c52 -99 147 -164 240 -164 14 0 28 -5 32 -11 21 -35 -79 -42 -149 -11 -60
27 -114 77 -149 138 l-29 53 -62 -62 c-102 -101 -212 -147 -352 -147 -142 0
-250 46 -358 151 -157 156 -195 380 -97 574 54 109 127 182 232 236 92 47 242
62 343 35z m1645 -555 l0 -59 34 10 c41 13 84 -5 103 -42 7 -14 13 -62 13
-112 l0 -88 -30 0 -30 0 0 84 c0 64 -4 88 -16 100 -18 19 -17 19 -49 4 -24
-11 -25 -15 -25 -100 l0 -88 -30 0 -30 0 0 175 0 175 30 0 c30 0 30 0 30 -59z
m1238 -118 l2 -173 -30 0 -30 0 0 176 0 175 28 -3 27 -3 3 -172z m-2206 157
c46 -13 68 -43 68 -93 0 -38 -34 -87 -60 -87 -9 0 10 -28 93 -137 7 -10 0 -13
-29 -13 -37 0 -42 4 -84 65 -61 87 -80 87 -80 -1 l0 -65 -32 3 -33 3 -3 155
c-1 85 0 160 2 167 7 16 104 18 158 3z m1601 -30 c24 -27 28 -39 23 -69 -3
-22 -17 -46 -35 -63 l-30 -27 50 -65 c27 -36 49 -68 49 -71 0 -3 -16 -5 -34
-5 -32 0 -40 7 -81 65 -30 41 -54 65 -66 65 -17 0 -19 -8 -19 -65 l0 -65 -30
0 -30 0 0 171 0 172 87 -6 c83 -5 89 -7 116 -37z m-1183 -20 c0 -38 2 -40 30
-40 25 0 30 -4 30 -25 0 -21 -5 -25 -30 -25 l-30 0 0 -71 c0 -70 0 -71 24 -65
15 4 28 0 37 -10 30 -36 -65 -61 -103 -27 -14 13 -18 31 -18 93 0 69 -2 78
-20 83 -11 3 -20 13 -20 22 0 9 9 19 20 22 11 3 20 14 20 25 0 31 19 58 40 58
17 0 20 -7 20 -40z m400 0 c0 -38 2 -40 30 -40 25 0 30 -4 30 -25 0 -21 -5
-25 -30 -25 l-30 0 0 -71 c0 -70 0 -71 24 -65 15 4 28 0 37 -10 30 -36 -65
-61 -103 -27 -14 13 -18 31 -18 93 0 69 -2 78 -20 83 -11 3 -20 13 -20 22 0 9
9 19 20 22 11 3 20 14 20 25 0 31 19 58 40 58 17 0 20 -7 20 -40z m-536 -60
c17 -17 21 -36 24 -120 l4 -100 -25 0 c-14 0 -29 5 -32 10 -4 7 -12 7 -25 0
-51 -27 -120 0 -120 47 0 52 42 83 112 83 26 0 29 3 22 23 -9 29 -24 38 -49
30 -68 -23 -96 9 -35 40 42 22 95 16 124 -13z m392 5 c28 -18 48 -83 32 -102
-7 -8 -35 -13 -79 -13 -74 0 -86 -11 -52 -45 12 -12 26 -15 52 -11 72 12 76
12 76 -9 0 -26 -39 -45 -93 -45 -37 0 -50 6 -78 34 -30 30 -34 40 -34 89 0 45
5 61 25 86 37 43 100 50 151 16z m657 -15 c21 -23 27 -40 25 -63 l-3 -32 -77
-5 -77 -5 12 -25 c15 -29 47 -37 88 -20 22 10 32 10 43 0 33 -27 -16 -60 -90
-60 -37 0 -51 6 -74 28 -59 59 -48 170 20 205 48 25 97 16 133 -23z m520 0
c21 -23 27 -40 25 -63 l-3 -32 -77 -5 -77 -5 12 -25 c15 -29 47 -37 88 -20 22
10 32 10 43 0 33 -27 -16 -60 -90 -60 -37 0 -51 6 -74 28 -59 59 -48 170 20
205 48 25 97 16 133 -23z m202 26 c40 -17 57 -46 53 -89 l-3 -32 -72 -3 c-74
-3 -81 -8 -63 -43 12 -21 59 -26 91 -8 20 10 49 -2 49 -22 0 -17 -60 -39 -105
-39 -39 0 -52 5 -75 30 -56 60 -44 171 23 204 40 19 59 20 102 2z m343 -10
c12 -12 13 -18 3 -29 -9 -12 -18 -13 -40 -4 -30 11 -61 5 -61 -13 0 -6 24 -21
54 -34 60 -27 75 -51 56 -95 -16 -39 -50 -55 -104 -49 -93 11 -95 53 -3 53 38
0 52 4 52 14 0 15 -12 22 -63 42 -40 15 -55 41 -47 80 12 53 112 76 153 35z"/>
<path d="M560 1176 c-135 -51 -223 -129 -277 -242 -63 -132 -63 -266 0 -398
77 -160 229 -256 407 -256 128 0 217 34 307 114 102 92 153 206 153 341 0 181
-102 339 -270 419 -59 28 -76 31 -175 33 -74 2 -122 -2 -145 -11z m174 -40
c40 -17 71 -75 61 -114 -20 -81 -114 -109 -174 -53 -41 38 -43 95 -6 140 22
26 35 32 78 40 4 0 22 -5 41 -13z m-214 -133 c43 -39 49 -87 18 -133 -60 -89
-188 -47 -188 62 1 85 105 129 170 71z m487 -8 c32 -32 35 -39 30 -78 -13
-100 -148 -132 -193 -46 -39 77 9 158 95 159 25 0 42 -9 68 -35z m-541 -259
c21 -21 34 -44 34 -59 0 -104 -115 -152 -182 -77 -44 48 -34 125 19 154 48 26
91 20 129 -18z m593 8 c57 -48 47 -135 -19 -169 -47 -24 -78 -19 -117 20 -33
33 -35 39 -30 82 10 88 98 124 166 67z m-425 -215 c37 -44 36 -105 -2 -142
-58 -55 -137 -40 -166 33 -29 74 17 140 99 140 36 0 48 -5 69 -31z m265 0 c40
-40 43 -94 6 -137 -32 -38 -72 -48 -118 -28 -107 44 -76 195 40 196 33 0 48
-6 72 -31z"/>
<path d="M658 1089 c-28 -16 -24 -75 6 -94 56 -37 118 42 70 89 -18 18 -51 20
-76 5z"/>
<path d="M411 966 c-7 -8 -11 -30 -9 -48 2 -25 9 -35 31 -42 48 -17 88 23 71
71 -7 23 -16 29 -45 31 -22 2 -40 -2 -48 -12z"/>
<path d="M892 968 c-17 -17 -15 -64 4 -82 33 -34 94 -7 94 42 0 43 -67 71 -98
40z"/>
<path d="M351 706 c-7 -8 -11 -30 -9 -48 2 -25 9 -35 31 -42 48 -17 88 23 71
71 -7 23 -16 29 -45 31 -22 2 -40 -2 -48 -12z"/>
<path d="M951 706 c-7 -8 -11 -30 -9 -48 2 -25 9 -35 31 -42 48 -17 88 23 71
71 -7 23 -16 29 -45 31 -22 2 -40 -2 -48 -12z"/>
<path d="M539 513 c-23 -6 -42 -47 -34 -72 21 -69 129 -37 111 33 -4 18 -48
51 -59 45 -1 -1 -9 -3 -18 -6z"/>
<path d="M800 507 c-49 -25 -30 -107 25 -107 51 0 74 75 33 104 -27 19 -26 19
-58 3z"/>
<path d="M1400 610 c0 -43 3 -50 19 -50 38 0 70 19 77 45 9 36 -11 55 -57 55
l-39 0 0 -50z"/>
<path d="M2950 609 l0 -52 36 6 c49 8 66 24 62 61 -3 29 -6 31 -50 34 l-48 3
0 -52z"/>
<path d="M1678 469 c-22 -12 -23 -38 -3 -45 19 -8 65 22 65 41 0 17 -36 20
-62 4z"/>
<path d="M2064 563 c-17 -17 -17 -18 9 -21 15 -2 39 -2 54 0 26 3 26 4 9 21
-10 9 -26 17 -36 17 -10 0 -26 -8 -36 -17z"/>
<path d="M2712 568 c-21 -21 -13 -28 33 -28 25 0 45 4 45 8 0 15 -24 32 -45
32 -12 0 -26 -5 -33 -12z"/>
<path d="M3232 568 c-21 -21 -13 -28 33 -28 25 0 45 4 45 8 0 15 -24 32 -45
32 -12 0 -26 -5 -33 -12z"/>
<path d="M3462 568 c-21 -21 -13 -28 33 -28 25 0 45 4 45 8 0 15 -24 32 -45
32 -12 0 -26 -5 -33 -12z"/>
</g>
</svg>
